<?xml version="1.0" standalone="no"?>
<!DOCTYPE svg PUBLIC "-//W3C//DTD SVG 20010904//EN"
 "http://www.w3.org/TR/2001/REC-SVG-20010904/DTD/svg10.dtd">
<svg version="1.0" xmlns="http://www.w3.org/2000/svg"
 width="500.000000pt" height="500.000000pt" viewBox="0 0 500.000000 500.000000"
 preserveAspectRatio="xMidYMid meet">

<g transform="translate(0.000000,500.000000) scale(0.100000,-0.100000)"
fill="#000000" stroke="none">
<path d="M2413 4170 c-68 -14 -145 -56 -197 -109 l-49 -49 -40 29 c-86 62
-237 86 -345 54 -76 -23 -170 -91 -213 -155 -119 -174 -73 -388 107 -503 l64
-41 0 -198 0 -198 755 0 755 0 0 205 0 204 35 17 c50 23 121 100 153 164 24
48 27 67 27 150 0 84 -3 102 -29 157 -35 76 -104 144 -184 181 -51 24 -69 27
-167 27 -99 0 -116 -3 -165 -27 -30 -15 -66 -34 -80 -43 -24 -16 -26 -16 -72
29 -97 93 -226 131 -355 106z m202 -164 c81 -48 145 -148 145 -228 0 -28 1
-28 61 -28 l60 0 -2 58 c-3 64 9 90 55 118 72 44 159 56 237 32 45 -13 113
-68 134 -107 24 -48 29 -123 11 -184 -20 -69 -83 -129 -162 -154 l-54 -17 0
-183 0 -183 -605 0 -605 0 -2 187 -3 188 -49 7 c-111 16 -186 112 -186 238 0
57 4 73 28 108 53 79 117 112 217 112 79 0 127 -18 177 -67 36 -36 37 -38 31
-93 l-6 -57 58 -7 c32 -3 59 -5 61 -3 2 2 7 31 12 64 11 81 49 142 113 184 88
56 193 62 274 15z"/>
<path d="M2206 3596 c-14 -19 -26 -42 -26 -51 0 -27 87 -110 147 -140 52 -26
68 -29 153 -29 81 0 103 4 153 27 56 25 177 129 177 151 0 6 -18 26 -40 44
l-39 33 -36 -40 c-57 -63 -124 -91 -214 -91 -66 0 -83 4 -128 30 -29 16 -65
46 -80 65 -15 19 -31 35 -34 35 -4 0 -18 -15 -33 -34z"/>
<path d="M1877 2899 c-61 -15 -141 -56 -190 -99 -64 -56 -99 -121 -121 -222
l-6 -28 -106 0 c-121 0 -153 -12 -179 -67 -14 -29 -16 -72 -13 -283 l3 -250
28 -27 c26 -27 33 -28 145 -33 l117 -5 6 -141 c4 -92 13 -160 24 -193 18 -56
68 -129 119 -174 42 -38 140 -85 193 -93 l43 -6 0 -270 0 -269 25 -24 24 -25
495 0 c318 0 504 4 522 10 53 20 53 25 54 311 l0 266 54 12 c113 25 229 120
284 231 25 51 27 65 30 213 l4 157 111 0 c132 0 172 16 182 72 3 18 5 145 3
281 l-3 249 -33 29 c-32 28 -35 29 -146 29 l-113 0 -7 42 c-19 117 -122 245
-234 290 l-57 23 -610 2 c-342 1 -627 -3 -648 -8z m1276 -168 c55 -40 101
-107 117 -171 7 -31 10 -186 8 -490 -3 -437 -3 -446 -25 -486 -34 -63 -66 -97
-125 -129 l-53 -30 -580 0 -580 0 -46 27 c-59 35 -112 94 -133 149 -15 39 -16
94 -14 519 l3 475 26 45 c29 52 93 99 159 117 34 9 187 12 620 10 l575 -2 48
-34z m-1593 -511 l0 -200 -65 0 -65 0 0 193 c0 107 3 197 7 200 3 4 33 7 65 7
l58 0 0 -200z m2005 0 l0 -195 -57 0 c-31 0 -59 3 -62 6 -4 4 -9 326 -6 382 0
4 28 7 63 5 l62 -3 0 -195z m-665 -1205 l0 -185 -400 0 -400 0 0 185 0 185
400 0 400 0 0 -185z"/>
<path d="M2100 2489 c-64 -19 -130 -100 -130 -161 0 -76 54 -158 117 -179 45
-14 105 -14 135 2 76 39 128 138 109 207 -29 99 -134 158 -231 131z"/>
<path d="M2795 2493 c-52 -14 -109 -70 -126 -125 -25 -79 16 -174 92 -214 36
-18 122 -18 157 0 58 30 102 106 102 176 0 47 -49 122 -93 144 -38 17 -103 27
-132 19z"/>
<path d="M2215 1860 c-10 -11 -18 -34 -18 -50 0 -16 8 -39 18 -50 17 -19 30
-20 286 -20 265 0 268 0 283 22 9 12 16 34 16 48 0 14 -7 36 -16 48 -15 22
-18 22 -283 22 -256 0 -269 -1 -286 -20z"/>
</g>
</svg>
